<?xml version="1.0" encoding="utf-8"?>
<!-- Generator: Adobe Illustrator 27.2.0, SVG Export Plug-In . SVG Version: 6.00 Build 0)  -->
<svg version="1.1" id="Layer_1" xmlns="http://www.w3.org/2000/svg" xmlns:xlink="http://www.w3.org/1999/xlink" x="0px" y="0px"
	 viewBox="0 0 225 66" style="enable-background:new 0 0 225 66;" xml:space="preserve">
<style type="text/css">
	.st0{fill:url(#SVGID_1_);}
	.st1{fill:#FFFFFF;}
</style>
<g>
	<path d="M74.1,45.3h-7.5l-1.8,5.3h-3.2L68.7,31H72l7.1,19.7h-3.2L74.1,45.3z M67.4,42.9h6l-2.9-8.6h-0.1L67.4,42.9z"/>
	<path d="M94.5,43.5c0,4.5-2.4,7.4-6,7.4c-2.1,0-3.7-1-4.5-2.6h-0.1v7.1h-3V36.3h2.9v2.5h0.1c0.8-1.7,2.5-2.7,4.6-2.7
		C92.1,36.1,94.5,38.9,94.5,43.5z M91.5,43.5c0-3-1.5-4.9-3.8-4.9s-3.8,2-3.8,4.9c0,3,1.5,4.9,3.8,4.9S91.5,46.5,91.5,43.5z"/>
	<path d="M110.4,43.5c0,4.5-2.4,7.4-6,7.4c-2.1,0-3.7-1-4.5-2.6h-0.1v7.1h-3V36.3h2.9v2.5h0.1c0.8-1.7,2.5-2.7,4.6-2.7
		C107.9,36.1,110.4,38.9,110.4,43.5z M107.3,43.5c0-3-1.5-4.9-3.8-4.9s-3.8,2-3.8,4.9c0,3,1.5,4.9,3.8,4.9
		C105.9,48.4,107.3,46.5,107.3,43.5z"/>
	<path d="M112.7,31h3v19.7h-3V31z"/>
	<path d="M131.1,46.5c-0.4,2.6-2.9,4.5-6.2,4.5c-4.2,0-6.8-2.9-6.8-7.4s2.6-7.5,6.7-7.5c4,0,6.5,2.8,6.5,7.2v1h-10.2v0.2
		c0,2.5,1.5,4.2,3.9,4.2c1.7,0,2.9-0.8,3.3-2.1h2.8V46.5z M121.1,42.2h7.2c-0.1-2.2-1.5-3.7-3.5-3.7C122.7,38.4,121.2,40,121.1,42.2
		z"/>
	<path d="M139.5,50.7V31h7.9c3.5,0,5.8,1.9,5.8,4.9c0,2.1-1.5,4-3.5,4.3v0.1c2.7,0.3,4.5,2.2,4.5,4.8c0,3.5-2.5,5.6-6.7,5.6
		L139.5,50.7z M142.6,39.3h3.4c2.7,0,4.1-1.1,4.1-3c0-1.8-1.3-2.8-3.5-2.8h-4.1v5.8H142.6z M146.8,48.2c2.8,0,4.2-1.1,4.2-3.3
		c0-2.1-1.5-3.2-4.4-3.2h-4v6.5H146.8z"/>
	<path d="M156.1,43.5c0-4.6,2.7-7.4,6.8-7.4s6.8,2.8,6.8,7.4S167,51,162.9,51C158.8,50.9,156.1,48.1,156.1,43.5z M166.7,43.5
		c0-3.2-1.5-5-3.8-5s-3.8,1.8-3.8,5s1.5,5,3.8,5S166.7,46.7,166.7,43.5z"/>
	<path d="M171.8,43.5c0-4.6,2.7-7.4,6.8-7.4s6.8,2.8,6.8,7.4s-2.7,7.5-6.8,7.5C174.5,50.9,171.8,48.1,171.8,43.5z M182.4,43.5
		c0-3.2-1.5-5-3.8-5s-3.8,1.8-3.8,5s1.5,5,3.8,5C181,48.5,182.4,46.7,182.4,43.5z"/>
	<path d="M196.6,36.3h3.5l-6,6.2l6.2,8.2h-3.4l-4.9-6.4l-1.2,1.2v5.2h-3V31h3v11.5L196.6,36.3z"/>
	<path d="M206.7,36c3.3,0,5.5,1.9,5.6,4.5h-2.8c-0.2-1.4-1.2-2.3-2.8-2.3S204,39,204,40.1c0,0.9,0.7,1.5,2.2,1.9l2.3,0.5
		c2.9,0.7,4.1,1.8,4.1,3.9c0,2.6-2.4,4.4-5.8,4.4c-3.6,0-5.8-1.8-6-4.5h2.9c0.3,1.5,1.3,2.2,3.1,2.2s2.9-0.7,2.9-1.9
		c0-0.9-0.5-1.5-2.1-1.8l-2.3-0.5c-2.7-0.6-4.1-1.9-4.1-4C201.2,37.8,203.4,36,206.7,36L206.7,36z"/>
	<path d="M67,24.6c-2.7,0-4.4-1.9-4.4-5c0-3,1.7-5,4.4-5c2.2,0,3.7,1.2,4,3.1h-1.5C69.2,16.6,68.3,16,67,16c-1.8,0-2.9,1.4-2.9,3.6
		s1.1,3.6,2.9,3.6c1.5,0,2.6-0.9,2.6-2.3v-0.2h-2.4v-1.2h3.9v1.2C71.1,23,69.5,24.6,67,24.6z"/>
	<path d="M79.2,22.4c-0.3,1.3-1.5,2.1-3.1,2.1c-2,0-3.3-1.4-3.3-3.7s1.3-3.7,3.3-3.7s3.2,1.4,3.2,3.6v0.5h-5v0.1c0,1.3,0.8,2,1.9,2
		c0.9,0,1.4-0.3,1.7-0.9H79.2z M74.2,20.1h3.6c0-1.1-0.7-1.9-1.8-1.9C75.1,18.3,74.3,19,74.2,20.1z"/>
	<path d="M83.1,15.4v1.8h1.5v1.2h-1.5v3.7c0,0.7,0.3,1.1,1,1.1h0.5v1.2c-0.2,0-0.5,0.1-0.8,0.1c-1.6,0-2.2-0.6-2.2-1.9v-4h-1.1v-1.2
		h1.1v-1.8h1.5V15.4z"/>
	<path d="M90.2,15c0-0.5,0.4-0.9,0.9-0.9S92,14.5,92,15s-0.4,0.9-0.9,0.9S90.2,15.5,90.2,15z M90.4,17.2h1.4v7.1h-1.4V17.2z"/>
	<path d="M96,15.4v1.8h1.5v1.2H96v3.7c0,0.7,0.3,1.1,1,1.1h0.5v1.2c-0.2,0-0.5,0.1-0.8,0.1c-1.6,0-2.2-0.6-2.2-1.9v-4h-1.1v-1.2h1.1
		v-1.8H96V15.4z"/>
	<path d="M103,20.8c0-2.3,1.3-3.7,3.4-3.7s3.4,1.4,3.4,3.7s-1.3,3.7-3.4,3.7C104.2,24.5,103,23.1,103,20.8z M108.2,20.8
		c0-1.5-0.7-2.5-1.9-2.5s-1.9,0.9-1.9,2.5s0.7,2.5,1.9,2.5C107.5,23.2,108.2,22.3,108.2,20.8z"/>
	<path d="M111.6,17.2h1.4v1.1h0.1c0.3-0.8,1.1-1.3,2.1-1.3c1.6,0,2.5,1,2.5,2.7v4.6h-1.4V20c0-1.1-0.5-1.7-1.5-1.7s-1.7,0.7-1.7,1.8
		v4.2h-1.4L111.6,17.2L111.6,17.2z"/>
</g>
<linearGradient id="SVGID_1_" gradientUnits="userSpaceOnUse" x1="33" y1="55.044" x2="33" y2="15.095" gradientTransform="matrix(1 0 0 -1 0 68)">
	<stop  offset="0" style="stop-color:#FBAD20"/>
	<stop  offset="1" style="stop-color:#F47B25"/>
</linearGradient>
<path class="st0" d="M52.8,25.5v-1.4v-1.2c0-0.9-0.1-1.8-0.2-2.6c-0.2-0.9-0.4-1.7-0.8-2.5s-0.9-1.5-1.5-2.1s-1.3-1.1-2.1-1.5
	s-1.6-0.7-2.5-0.8c-0.9-0.2-1.7-0.2-2.6-0.2h-1.2h-1.4h-15h-1.4h-1.2c-0.9,0-1.8,0.1-2.6,0.2c-0.9,0.2-1.7,0.4-2.5,0.8
	s-1.5,0.9-2.1,1.5s-1.1,1.3-1.5,2.1s-0.7,1.6-0.8,2.5c-0.2,0.9-0.2,1.7-0.2,2.6v1.2v1.4v15v1.4v1.2c0,0.9,0.1,1.8,0.2,2.6
	c0.2,0.9,0.4,1.7,0.8,2.5s0.9,1.5,1.5,2.1s1.3,1.1,2.1,1.5s1.6,0.7,2.5,0.8c0.9,0.2,1.7,0.2,2.6,0.2h1.2h1.4h15h1.4h1.2
	c0.9,0,1.8-0.1,2.6-0.2c0.9-0.2,1.7-0.4,2.5-0.8s1.5-0.9,2.1-1.5s1.1-1.3,1.5-2.1s0.7-1.6,0.8-2.5c0.2-0.9,0.2-1.7,0.2-2.6v-1.2
	v-1.4V25.5z"/>
<path class="st1" d="M31.3,24.2c0.7,1,1.1,1.3,1.1,4.2v16.2c0,0.7,0-1.6-2.3-3.3c-2.4-1.8-6.4-2-9.8,0.5c-0.6,0.5-1.1,0.4-1.1-0.3
	V25.8c0-0.7,0.1-1.4,1.1-2.1C23.6,21.2,28.7,21.2,31.3,24.2z M46.4,25.7c0-0.7-0.1-1.4-1.1-2.1c-3.3-2.4-8.4-2.5-11,0.6
	c-0.7,1-1.1,1.3-1.1,4.2v16.2c0,0.7,0-1.6,2.3-3.3c2.4-1.8,6.4-2,9.8,0.5c0.6,0.5,1.1,0.4,1.1-0.3V25.7z"/>
</svg>
