<?xml version="1.0" encoding="UTF-8"?>
<svg id="Layer_1" xmlns="http://www.w3.org/2000/svg" version="1.1" viewBox="0 0 225 122">
  <!-- Generator: Adobe Illustrator 29.8.3, SVG Export Plug-In . SVG Version: 2.1.1 Build 3)  -->
  <defs>
    <style>
      .st0 {
        fill: #bf2026;
      }
    </style>
  </defs>
  <path id="polygon8" class="st0" d="M67.2,73.8l-16.5,19.3,18,25.4h-12.5l-15.8-22.5h-.2v22.5h-10.4V53.7h10.4v37.2l14.5-17.1h12.5Z"/>
  <path id="path10" class="st0" d="M67.8,96.1c0-14.7,6.9-23.4,19.7-23.4s19.7,8.8,19.7,23.4-6.9,23.4-19.7,23.4-19.7-8.7-19.7-23.4M87.5,112.2c7.5,0,8.6-7.7,8.6-16s-1.1-16-8.6-16-8.7,7.7-8.7,16,1.1,16,8.7,16"/>
  <path id="path12" class="st0" d="M123.3,79.2h.2c2.4-4.1,6.8-6.5,11.5-6.4,10.7,0,15.4,9.1,15.4,23.4s-4.3,23.4-18.9,23.4-18.7-6.7-18.7-20v-45.8h10.4v25.5h0ZM131.6,112.2c6.7,0,7.8-8.7,7.8-16s-.8-16.7-7.8-16.7-8.3,9.2-8.3,16.7c0,11.2,1.7,16,8.3,16"/>
  <path id="path14" class="st0" d="M155.7,96.1c0-14.7,6.9-23.4,19.7-23.4s19.7,8.8,19.7,23.4-6.9,23.4-19.7,23.4-19.7-8.7-19.7-23.4M175.5,112.2c7.5,0,8.6-7.7,8.6-16s-1.1-16-8.6-16-8.6,7.7-8.6,16,1.1,16,8.6,16"/>
  <g>
    <path id="path18" class="st0" d="M66.4,32.9c-3.5,0-6-3.4-6-7.7s2.5-7.7,6-7.7,5.9,3.4,5.9,7.7-2.4,7.7-5.9,7.7ZM72.2,11.6v1.2c-1.7-1.2-3.7-1.9-5.8-1.9-7,0-12.3,6.4-12.3,14.2s5.3,14.2,12.3,14.2c2.1,0,4.1-.6,5.8-1.8v1.2h6.2V11.6h-6.2Z"/>
    <path id="path20" class="st0" d="M121.5,11.6v15.9c0,3-2.1,5.5-5,5.5s-5-2.5-5-5.5v-15.9h-6.2v15.9c0,6.5,4.5,11.9,11,11.9,1.9,0,3.7-.6,5.2-1.7v1h6.2V11.6h-6.1Z"/>
    <path id="path22" class="st0" d="M178.9,38.8v-15.9c0-3,2.1-5.5,5-5.5s5,2.5,5,5.5v15.9h6.2v-15.9c0-6.5-4.5-11.9-11-11.9-1.9,0-3.7.6-5.2,1.7v-1h-6.2v27.1h6.1Z"/>
    <path id="path24" class="st0" d="M36.3,11.3h4.2c2.9-.1,5.3,2.2,5.4,5.1s-2.2,5.3-5.1,5.4c-.1,0-.2,0-.4,0h-4.2v-10.5ZM36.3,38.8v-10.5h4.6l7.9,10.5h8.1l-9.5-12.7c5.3-3.7,6.5-11,2.8-16.3-2.2-3.1-5.8-4.9-9.5-4.9h-10.6v33.9h6.4Z"/>
    <path id="path26" class="st0" d="M144.3,32.4c-.6.4-1.3.6-2.1.7-1,0-2.9-.8-2.9-3.3v-11.7h5.3v-6.4h-5.3v-6.8h-6.2v6.8h-3.3v6.4h3.3v11.7c0,6.1,4.6,9.7,9.2,9.7,2.1,0,4.2-.6,6-1.7l-4-5.4Z"/>
    <path id="polygon28" class="st0" d="M88.2,2.6h-6.3v36.2h6.3v-11.2l9.1,11.2h8.6l-12.3-14.4,10.6-12.7h-8.6l-7.4,9.5V2.6Z"/>
    <path id="path30" class="st0" d="M163.9,21.7h-11.1c1.3-6.4,9.9-6.7,11.1,0ZM158.5,10.9c-7.1,0-12.2,6.3-12.2,14.3s6.4,14.3,12.9,14.3,7.4-1.1,10.9-6.1l-5.4-3.1c-4.2,6.2-11.2,3.1-12-3.1h17.7c1.5-9.8-4.8-16.2-11.8-16.2Z"/>
    <polygon class="st0" points="62.7 43.4 70.5 51.9 162.1 43.4 62.7 43.4"/>
  </g>
</svg>