<svg enable-background="new 0 0 225 90" viewBox="0 0 225 90" xmlns="http://www.w3.org/2000/svg"><path d="m76 20.6c-12.2 0-22 9.9-22 22s9.9 22 22 22c12.2 0 22-9.9 22-22s-9.9-22-22-22zm0 35.4c-7.4 0-13.5-6-13.5-13.5 0-7.4 6-13.5 13.5-13.5 7.4 0 13.5 6 13.5 13.5-.1 7.5-6.1 13.5-13.5 13.5z" fill="#184629"/><path d="m125.6 20.6c-12.2 0-22 9.9-22 22s9.9 22 22 22c12.2 0 22-9.9 22-22s-9.9-22-22-22zm0 35.4c-7.4 0-13.5-6-13.5-13.5 0-7.4 6-13.5 13.5-13.5 7.4 0 13.5 6 13.5 13.5s-6.1 13.5-13.5 13.5z" fill="#5371b1"/><path d="m155.3.5h8.8v63.5h-8.8z" fill="#b2b537"/><path d="m183.6 21.1-19.7 21.5 21.5 22h11.6l-21.6-22 18.8-21.5z" fill="#b2b537"/><path d="m203.8 21v.5h-1.5v4h-.6v-4h-1.5v-.5z" fill="#b2b537"/><path d="m204.5 21h.9l1.3 3.8 1.3-3.8h.9v4.5h-.6v-2.6-.5-.7l-1.3 3.8h-.6l-1.3-3.8v.1.5.5 2.6h-.6z" fill="#b2b537"/><g fill="#5371b1"><path d="m106 75.7h1.4v3.9c.5-.4 1.1-.5 1.8-.5 2 0 3.3 1.4 3.3 3.5 0 2.2-1.4 3.5-3.8 3.5-.9 0-1.7-.2-2.6-.5v-9.9zm2.7 9.2c1.4 0 2.3-.8 2.3-2.3 0-1.4-.8-2.3-2.1-2.3-.5 0-1 .2-1.5.5v3.8c.4.2.9.3 1.3.3z"/><path d="m112.9 79.2h1.5l2.1 4 2-4h1.5l-5 10.2h-1.5l2.3-4.7z"/><path d="m125.3 75.7h3c2.1 0 3.2 1 3.2 2.7 0 1.1-.5 1.8-1.5 2.1 1.5.4 2.3 1.3 2.3 2.7 0 1.7-1.3 2.8-3.5 2.8h-3.6v-10.3zm2.4 4.4c1.5 0 2.2-.5 2.2-1.6 0-1-.6-1.4-1.8-1.4h-1.4v3.1h1zm-1 4.5h2c1.4 0 2.1-.5 2.1-1.6s-.8-1.6-2.3-1.6h-1.7v3.2z"/><path d="m135.5 86.1c-1.2 0-1.9-.6-1.9-1.6s.8-1.7 2.2-2.2l1.6-.5v-.3c0-.8-.4-1.1-1.3-1.1-.7 0-1.6.3-2.4.9v-1.3c.7-.6 1.6-.9 2.5-.9 1.8 0 2.5.8 2.5 2.4v2.9c0 .4.1.7.3.7s.4-.1.7-.4v.8c-.5.4-1 .6-1.5.6s-.8-.2-.8-.7c-.6.5-1.2.7-1.9.7zm1.9-3.5c-1.6.5-2.4.9-2.4 1.6 0 .6.4.9 1 .9.5 0 .9-.2 1.4-.5z"/><path d="m140.9 79.2h1.4v1.5c.7-1.1 1.2-1.6 2-1.6.5 0 1 .2 1.5.7l-.7 1.2c-.4-.4-.8-.5-1.3-.5-.7 0-1.3.6-1.5 1.7v3.8h-1.4z"/><path d="m146.8 79.2h1.4v.8c.7-.6 1.3-.9 2.1-.9 1.5 0 2.4.9 2.4 2.4v4.5h-1.4v-4.1c0-1.1-.4-1.6-1.4-1.6-.7 0-1.2.3-1.7.9v4.8h-1.4z"/><path d="m157.6 86.1c-2.2 0-3.5-1.5-3.5-3.6 0-2 1.3-3.4 3.3-3.4 1.9 0 3.2 1.3 3.2 3.6v.2h-5.1c.1 1.3.9 2 2.2 2 .9 0 1.8-.3 2.8-1v1.4c-.9.5-1.8.8-2.9.8zm1.5-4.2c-.1-1-.8-1.6-1.7-1.6-1 0-1.7.6-1.9 1.6z"/><path d="m161.7 84.1c.9.6 1.6.8 2.2.8.7 0 1.1-.3 1.1-.7 0-.5-.6-.7-1.6-1.2-1.1-.6-1.7-1.1-1.7-2 0-1.1.8-1.8 2.3-1.8.8 0 1.5.2 2.1.6v1.3c-.8-.4-1.5-.7-2.1-.7s-.9.2-.9.6c0 .5.5.8 1.5 1.3 1.1.6 1.8 1 1.8 2 0 1.2-.9 2-2.4 2-.9 0-1.6-.2-2.3-.6z"/><path d="m179.1 86-1.2-1.5c-1 1.1-2 1.7-3.3 1.7-1.7 0-2.8-1.1-2.8-2.6 0-1.2.9-2.1 2.6-3.1-.8-.8-1.2-1.6-1.2-2.5 0-1.4 1.1-2.4 2.6-2.4 1.6 0 2.6 1 2.6 2.3 0 1.2-.6 2-1.9 2.8l1.5 1.7c.4-.5.8-1.1 1.1-1.7h1.5c-.4 1-.9 2-1.7 2.8l2.1 2.5zm-3.8-4.6c-1.3.8-1.9 1.4-1.9 2.1s.5 1.2 1.4 1.2c.7 0 1.4-.4 2.3-1.2zm1.8-3.6c0-.6-.5-1.1-1.3-1.1-.7 0-1.2.5-1.2 1.1 0 .5.3 1.1 1.1 1.9.9-.6 1.4-1.1 1.4-1.9z"/><path d="m186.6 75.7h1.3l6.8 8v-8h1.5v10.3h-1.3l-6.7-8v8h-1.5v-10.3z"/><path d="m201.5 79.1c1 0 1.8.4 2.5 1 .7.7 1.1 1.5 1.1 2.5 0 .9-.4 1.8-1.1 2.5s-1.6 1-2.5 1c-2 0-3.6-1.6-3.6-3.5 0-2 1.6-3.5 3.6-3.5zm0 5.7c1.2 0 2.2-1 2.2-2.3 0-1.2-1-2.2-2.2-2.2s-2.2 1-2.2 2.2c0 1.3 1 2.3 2.2 2.3z"/><path d="m206.7 75.7h1.4v3.9c.5-.4 1.1-.5 1.8-.5 2 0 3.3 1.4 3.3 3.5 0 2.2-1.4 3.5-3.8 3.5-.9 0-1.7-.2-2.6-.5v-9.9zm2.7 9.2c1.4 0 2.3-.8 2.3-2.3 0-1.4-.8-2.3-2.1-2.3-.5 0-1 .2-1.5.5v3.8c.5.2.9.3 1.3.3z"/><path d="m214.8 75.7h1.4v10.3h-1.4z"/><path d="m221.3 86.1c-2.2 0-3.5-1.5-3.5-3.6 0-2 1.3-3.4 3.3-3.4 1.9 0 3.2 1.3 3.2 3.6v.2h-5.1c.1 1.3.9 2 2.2 2 .9 0 1.8-.3 2.8-1v1.4c-1 .5-1.9.8-2.9.8zm1.5-4.2c-.1-1-.8-1.6-1.7-1.6-1 0-1.7.6-1.9 1.6z"/></g><path d="m10.7 64v-.4-20.9c0-7.5 6-13.5 13.5-13.5s13.5 6 13.5 13.5v20.9.4h9.2v-21.8c0-12-9.5-21.7-21.3-21.7h-2.9c-11.7.1-21.2 9.8-21.2 21.7v21.8z" fill="#2c8d45"/></svg>