<?xml version="1.0" encoding="utf-8"?>
<!-- Generator: Adobe Illustrator 27.2.0, SVG Export Plug-In . SVG Version: 6.00 Build 0)  -->
<svg version="1.1" id="Groupe_1_00000086678831617719511780000012381641848020841858_" xmlns:svg="http://www.w3.org/2000/svg"
	 xmlns="http://www.w3.org/2000/svg" xmlns:xlink="http://www.w3.org/1999/xlink" x="0px" y="0px" viewBox="0 0 512 123"
	 style="enable-background:new 0 0 512 123;" xml:space="preserve">
<style type="text/css">
	.st0{fill:#1ED760;}
</style>
<g id="g1372" transform="matrix(0.99999673,3.7142374e-5,0,0.99999994,-0.02051224,-2.6153317)">
	<g id="g1343" transform="translate(-12.909062,1.0891918)">
		<g id="g1954" transform="matrix(0.16123016,-2.7600974e-8,0,0.16048704,10.853735,1.2812224)">
			<g id="R">
				<path id="path930" class="st0" d="M3128.1,357.5c-6.1-3.4-10.9-8.2-14.3-14.3s-5.1-12.9-5.1-20.4c0-7.6,1.7-14.5,5.1-20.6
					s8.2-10.8,14.3-14.3c6.1-3.4,12.9-5.1,20.5-5.1s14.4,1.7,20.5,5.1c6.1,3.4,10.9,8.2,14.3,14.3c3.4,6.1,5.1,12.9,5.1,20.6
					c0,7.5-1.7,14.4-5.1,20.4c-3.4,6.1-8.2,10.8-14.3,14.3c-6.1,3.4-12.9,5.1-20.5,5.1C3141,362.6,3134.2,360.9,3128.1,357.5z
					 M3165.2,351.2c4.9-2.8,8.8-6.7,11.5-11.7s4.1-10.6,4.1-16.8c0-6.3-1.4-11.9-4.1-16.8c-2.8-5-6.6-8.8-11.5-11.6
					c-4.9-2.8-10.5-4.2-16.7-4.2c-6.3,0-11.9,1.4-16.8,4.2c-4.9,2.8-8.7,6.7-11.5,11.6c-2.8,5-4.1,10.6-4.1,16.8
					c0,6.3,1.4,11.9,4.1,16.8c2.8,5,6.6,8.9,11.5,11.7s10.5,4.3,16.8,4.3C3154.7,355.4,3160.3,354,3165.2,351.2z M3133.5,303.2h17.6
					c4.9,0,8.7,1,11.2,2.9s3.9,4.7,3.9,8.2c0,2.5-0.8,4.7-2.5,6.5c-1.6,1.8-4.1,3.1-7.3,3.8L3168,340h-10.9l-10.7-14.3h-3.9V340h-9
					L3133.5,303.2L3133.5,303.2z M3156.8,314.5c0-2.9-2.3-4.4-7-4.4h-7.4v8.5h7.3C3154.5,318.7,3156.8,317.3,3156.8,314.5
					L3156.8,314.5z"/>
			</g>
			<g id="g350" transform="matrix(6.0119873,0,0,6.9344189,-64.751946,-9.8295927)">
				<g id="g1315" transform="matrix(0.99701583,0,0,1,0.4896632,0)">
					<g id="S-6" transform="matrix(0.16667713,0,0,0.14448324,10.768935,1.2938069)">
						<g id="g4">
							<path id="path2" class="st0" d="M1240.5,395.1c-21.5-21.9-52.7-38.2-93.5-48.7l-38.9-10.5c-25.5-6.6-44.4-12.6-57-18.1
								c-12.5-5.5-20.8-11.2-25-17.1c-4.2-5.9-6.2-13.3-6.2-22.1c0-14.5,7.2-26.8,21.7-36.9c14.5-10.1,35.6-15.1,63.2-15.1
								c54.8,0,123.9,32.2,143.5,58.9v-103c-15.4-11.9-36.2-22.1-62.6-30.6c-26.3-8.6-54.7-12.8-84.9-12.8
								c-37.8,0-70.2,6.5-97.4,19.4c-27.2,13-48,30.3-62.2,52c-14.3,21.7-21.4,45.1-21.4,70.1c0,37.3,10.9,66.5,32.6,87.6
								c21.7,21.1,53.4,37.1,95.1,48.1l38.9,10.5c24.6,6.6,43,13,55.3,19.1c12.3,6.1,20.4,12.5,24.4,19.1c3.9,6.6,5.9,14.7,5.9,24.4
								c0,16.2-6.7,29.1-20.1,38.5c-13.4,9.4-32.8,14.2-58.3,14.2c-57.4,0-144.5-38.1-173.8-85.8v111.5c15.4,15.8,39.5,30,72.4,42.5
								c32.9,12.5,68.3,18.8,106,18.8c35.6,0,66.5-6.4,92.8-19.1c26.3-12.7,46.5-30.2,60.6-52.3c14-22.2,21.1-46.9,21.1-74.1
								C1272.7,446.4,1262,417,1240.5,395.1L1240.5,395.1z"/>
						</g>
					</g>
					<g id="p-7" transform="matrix(0.16667713,0,0,0.14448324,10.768935,1.2938069)">
						<g id="g9">
							<path id="path7" class="st0" d="M1656.8,358.3c-13.1-27.1-31.2-48.4-54.3-64c-23.2-15.6-49.2-23.4-78-23.4
								c-54.1,0-95.8,26.2-125.1,78.5v-73.4l-96.9,0v452.5h96.9v-178c29.3,51.5,71.3,77.2,125.8,77.2c28.9,0,54.9-7.7,78-23
								c23.1-15.3,41.1-36.6,54-63.6c12.8-27.1,19.2-57.6,19.2-91.4S1669.8,385.4,1656.8,358.3L1656.8,358.3z M1556.7,519.5
								c-14.7,17.6-33.9,26.4-57.8,26.4c-23.4,0-44.1-9.1-62.2-27.4c-18.1-18.3-31.3-41.4-39.5-69.4c8.2-28,21.4-51.1,39.5-69.4
								c18.1-18.3,38.8-27.4,62.2-27.4c23.8,0,43.1,9,57.8,27.1c14.7,18.1,22,41.5,22,70.4S1571.4,501.9,1556.7,519.5z"/>
						</g>
					</g>
					<g id="o-5" transform="matrix(0.16667713,0,0,0.14448324,10.768935,1.2938069)">
						<g id="g14">
							<path id="path12" class="st0" d="M2055.5,357.8c-16.1-27.5-38.4-49.2-67-65c-28.7-15.8-61.3-23.7-98-23.7
								c-36.7,0-69.3,7.9-98,23.7c-28.7,15.8-50.9,37.5-66.7,65c-15.8,27.5-23.7,58.2-23.7,92.1c0,33.4,7.9,63.9,23.7,91.4
								c15.8,27.5,38,49.2,66.7,65c28.6,15.8,61.3,23.7,98,23.7c36.7,0,69.3-7.9,98-23.7c28.6-15.8,51-37.5,67-65
								c16-27.5,24.1-58,24.1-91.4C2079.5,416,2071.5,385.3,2055.5,357.8z M1957.2,520.2c-17,18.5-39.2,27.8-66.7,27.8
								c-27.1,0-49.1-9.1-66-27.4c-17-18.3-25.4-41.9-25.4-70.8c0-28.9,8.5-52.6,25.4-71.1c16.9-18.5,38.9-27.8,66-27.8
								c27,0,49.2,9.3,66.3,27.8c17.2,18.5,25.8,42.2,25.8,71.1C1982.6,478.3,1974.1,501.7,1957.2,520.2z"/>
						</g>
					</g>
					<g id="t-3" transform="matrix(0.16667713,0,0,0.14448324,10.768935,1.2938069)">
						<g id="g19">
							<path id="path17" class="st0" d="M2253.2,534.5c-8-8.1-12-21.4-12-39.9V355.8l93.9,0v-76.5h-93.9v-93.4h-0.7l-160.9,124.6
								v45.4h63.9v153c0,38.8,10.3,68,30.9,87.7c20.6,19.6,48.4,29.5,83.2,29.5c14.2,0,36.8-2.4,48.3-6c11.4-3.6,24-10.6,30-16v-71
								C2307,556.1,2264.5,545.9,2253.2,534.5L2253.2,534.5z"/>
						</g>
					</g>
					<g id="i-5" transform="matrix(0.16667713,0,0,0.14448324,10.768935,1.2938069)">
						<g id="g24">
							<path id="path22" class="st0" d="M2373.3,212.9c10.8,10.2,24.6,15.2,41.6,15.2c16.5,0,30.1-5.1,40.9-15.2
								c10.8-10.2,16.2-22.9,16.2-38.3c0-15.3-5.4-28.1-16.2-38.3c-10.8-10.2-24.4-15.2-40.9-15.2c-17,0-30.8,5.1-41.6,15.2
								c-10.8,10.2-16.2,22.9-16.2,38.3C2357.2,190,2362.5,202.7,2373.3,212.9z M2366.1,619.4h97.6V279.3h-97.6V619.4z"/>
						</g>
					</g>
					<g id="f-6" transform="matrix(0.16667713,0,0,0.14448324,10.768935,1.2938069)">
						<g id="g29">
							<path id="path27" class="st0" d="M2656.1,253.5c2-15.4,5.5-24.7,12.7-33.9c8-10.2,19-17.4,36-17.4c9.6,0,25.4,2.8,34.2,5.6
								c11.2,3.7,32.5,13.4,38,17l-35.1-84.8c-7.3-4.1-17.2-8-29.5-11.6c-12.4-3.6-25.4-5.5-39.1-5.5c-35.3,0-63.1,11.5-83.4,34.5
								c-20.4,23-30.6,52.7-30.6,89.1v32.8h-61v77.2h61v263h96.9v-263h90.7v-77.2l-90.7,0L2656.1,253.5L2656.1,253.5z"/>
						</g>
					</g>
					<g id="y-2" transform="matrix(0.16667713,0,0,0.14448324,10.768935,1.2938069)">
						<g id="g34">
							<polygon id="polygon32" class="st0" points="2781,728 2886,728 3084.7,279.4 2986.5,279.4 2896.5,495.3 2805.9,279.4 
								2698,279.4 2844.3,593.6 							"/>
						</g>
					</g>
				</g>
				<path id="path40" class="st0" d="M79,1.7c-35.1-1.2-64.6,22.5-66,53c-1.4,30.5,25.9,56.2,61,57.4c35.1,1.2,64.6-22.5,66-53
					C141.3,28.6,114,2.9,79,1.7z M105.8,82.6c-0.8,1.2-2.3,1.8-3.8,1.6c-0.5-0.1-0.9-0.2-1.3-0.4c-8.4-4.2-17.6-6.9-27.2-8
					S54.1,75.1,44.7,77c-2,0.4-4.1-0.7-4.6-2.4c-0.5-1.8,0.8-3.6,2.8-4c10.3-2.2,20.9-2.6,31.5-1.3c10.6,1.3,20.7,4.3,29.9,8.8
					C106.2,79,106.8,81,105.8,82.6L105.8,82.6L105.8,82.6z M114.2,68.1c-1.3,2.1-4.3,2.9-6.7,1.7c-9.8-4.6-20.5-7.7-31.6-9
					c-11.2-1.4-22.3-1-33.3,1.1C42,62,41.4,62.1,40.8,62c-2-0.2-3.7-1.5-4.1-3.3c-0.6-2.3,1.1-4.6,3.8-5.1
					c12.1-2.3,24.4-2.7,36.8-1.2c12.3,1.5,24.1,4.9,34.9,10C114.6,63.4,115.5,66,114.2,68.1L114.2,68.1z M123.4,51.8
					c-1.2,2-3.8,3.1-6.2,2.8c-0.7-0.1-1.3-0.3-2-0.5c-11.4-5.2-23.8-8.6-36.6-10.2c-12.9-1.6-25.8-1.2-38.4,1
					c-3.3,0.6-6.5-1.3-7.2-4.1c-0.7-2.9,1.5-5.6,4.7-6.2c14-2.5,28.3-2.8,42.5-1.1c14.2,1.7,27.9,5.5,40.5,11.3
					C123.8,46,125,49.2,123.4,51.8L123.4,51.8z"/>
			</g>
		</g>
	</g>
</g>
</svg>
