<?xml version="1.0" encoding="UTF-8"?><svg id="Layer_1" xmlns="http://www.w3.org/2000/svg" viewBox="0 0 589.07 580.11"><path d="m573.56,200.38c-29.32-86.93-88.21-146.91-173.13-180.87C354.71,1.23,306.9-3.47,258.06,2.37c-59.27,7.08-111.77,30.2-156.65,69.21C35.23,129.09,2.56,202.67.01,292.77h-.01c.97,11.1,1.17,25.04,3.52,38.6,17.73,102.28,73.84,176.28,167.11,221,60.96,29.23,125.56,34.88,191.2,19.24,83.39-19.87,147.31-67.61,189.4-142.12,40.98-72.54,49.08-149.82,22.33-229.11Zm-40.81,247.78c-32.54,47.48-75.58,82.23-128.73,104.06-46.03,18.91-94.01,25.31-143.51,19.46-66.4-7.85-123.53-35.35-170.75-82.51-45.18-45.13-72.71-99.58-80.71-163.1C-.51,250.15,17.78,180.98,63.89,120.01,112.88,55.22,178.95,18.93,259.12,7.99c12.02-1.64,24.24-1.81,34.46-2.53,86.27,2.12,157.96,32.7,215.22,95.11,40.92,44.58,64.98,97.45,71.62,157.44,7.63,68.97-8.28,132.68-47.67,190.15Z"/><path d="m116.23,438.44c.46.67.59.79.65.94,1.74,4.27,2.37,10.01,5.53,12.4,2.94,2.22,8.57.87,14.32,1.16-3.38,2.65-5.86,4.88-8.62,6.66-2.84,1.84-3.62,3.81-2.28,7.04,1.27,3.03,1.93,6.32,3.14,10.48-3.81-2.22-7.11-3.88-10.11-5.99-2.29-1.6-3.97-1.56-6.16.15-2.86,2.24-6.01,4.09-10.16,6.86,1.32-4.06,2.05-7.06,3.26-9.86,1.71-3.94,1.24-6.78-2.8-8.99-2.68-1.47-5-3.61-7.2-6.71,3.57,0,7.16-.21,10.71.06,3.14.24,4.86-.7,5.76-3.85.98-3.44,2.52-6.71,3.95-10.37v.02Z"/><path d="m157.86,475.07c.46.67.59.79.65.94,1.74,4.27,2.37,10.01,5.53,12.4,2.94,2.22,8.57.87,14.32,1.16-3.38,2.65-5.86,4.88-8.62,6.66-2.84,1.84-3.62,3.81-2.28,7.04,1.27,3.03,1.93,6.32,3.14,10.48-3.81-2.22-7.11-3.88-10.11-5.99-2.29-1.6-3.97-1.56-6.16.15-2.86,2.24-6.01,4.09-10.16,6.86,1.32-4.06,2.05-7.06,3.26-9.86,1.71-3.94,1.24-6.78-2.8-8.99-2.68-1.47-5-3.61-7.2-6.71,3.57,0,7.16-.21,10.71.06,3.14.24,4.86-.7,5.76-3.85.98-3.44,2.52-6.71,3.95-10.37v.02Z"/><path d="m208.34,506.89c.46.67.59.79.65.94,1.74,4.27,2.37,10.01,5.53,12.4,2.94,2.22,8.57.87,14.32,1.16-3.38,2.65-5.86,4.88-8.62,6.66-2.84,1.84-3.62,3.81-2.28,7.04,1.27,3.03,1.93,6.32,3.14,10.48-3.81-2.22-7.11-3.88-10.11-5.99-2.29-1.6-3.97-1.56-6.16.15-2.86,2.24-6.01,4.09-10.16,6.86,1.32-4.06,2.05-7.06,3.26-9.86,1.71-3.94,1.24-6.78-2.8-8.99-2.68-1.47-5-3.61-7.2-6.71,3.57,0,7.16-.21,10.71.06,3.14.24,4.86-.7,5.76-3.85.98-3.44,2.52-6.71,3.95-10.37v.02Z"/><path d="m265.81,517.79c.46.67.59.79.65.94,1.74,4.27,2.37,10.01,5.53,12.4,2.94,2.22,8.57.87,14.32,1.16-3.38,2.65-5.86,4.88-8.62,6.66-2.84,1.84-3.62,3.81-2.28,7.04,1.27,3.03,1.93,6.32,3.14,10.48-3.81-2.22-7.11-3.88-10.11-5.99-2.29-1.6-3.97-1.56-6.16.15-2.86,2.24-6.01,4.09-10.16,6.86,1.32-4.06,2.05-7.06,3.26-9.86,1.71-3.94,1.24-6.78-2.8-8.99-2.68-1.47-5-3.61-7.2-6.71,3.57,0,7.16-.21,10.71.06,3.14.24,4.86-.7,5.76-3.85.98-3.44,2.52-6.71,3.95-10.37v.02Z"/><path d="m322.6,516.32c.46.67.59.79.65.94,1.74,4.27,2.37,10.01,5.53,12.4,2.94,2.22,8.57.87,14.32,1.16-3.38,2.65-5.86,4.88-8.62,6.66-2.84,1.84-3.62,3.81-2.28,7.04,1.27,3.03,1.93,6.32,3.14,10.48-3.81-2.22-7.11-3.88-10.11-5.99-2.29-1.6-3.97-1.56-6.16.15-2.86,2.24-6.01,4.09-10.16,6.86,1.32-4.06,2.05-7.06,3.26-9.86,1.71-3.94,1.24-6.78-2.8-8.99-2.68-1.47-5-3.61-7.2-6.71,3.57,0,7.16-.21,10.71.06,3.14.24,4.86-.7,5.76-3.85.98-3.44,2.52-6.71,3.95-10.37v.02Z"/><path d="m379.97,502.24c.46.67.59.79.65.94,1.74,4.27,2.37,10.01,5.53,12.4,2.94,2.22,8.57.87,14.32,1.16-3.38,2.65-5.86,4.88-8.62,6.66-2.84,1.84-3.62,3.81-2.28,7.04,1.27,3.03,1.93,6.32,3.14,10.48-3.81-2.22-7.11-3.88-10.11-5.99-2.29-1.6-3.97-1.56-6.16.15-2.86,2.24-6.01,4.09-10.16,6.86,1.32-4.06,2.05-7.06,3.26-9.86,1.71-3.94,1.24-6.78-2.8-8.99-2.68-1.47-5-3.61-7.2-6.71,3.57,0,7.16-.21,10.71.06,3.14.24,4.86-.7,5.76-3.85.98-3.44,2.52-6.71,3.95-10.37v.02Z"/><path d="m491.84,453.8c-.77.59-1.54,1.18-2.32,1.76-6.15,4.57-8.16,10.62-6.02,18.16.22.77.36,1.55.56,2.44-.6,0-1.01.13-1.16-.02-8.03-7.45-15.85-7.51-24,.48,1.36-4.65,2.72-9.3,4.12-14.1-4-3.13-7.89-6.16-12.86-10.04,4.88,0,8.6-.17,12.31.06,2.75.17,4.3-.7,5.17-3.39,1.13-3.46,2.62-6.8,4.35-11.17,1.57,4.23,3.04,7.66,4.12,11.21.82,2.69,2.29,3.64,5.06,3.46,3.43-.23,6.89-.05,10.34-.05.12.41.23.81.35,1.22l-.02-.02Z"/><path d="m451.58,491.06c-.77.59-1.54,1.18-2.32,1.76-6.15,4.57-8.16,10.62-6.02,18.16.22.77.36,1.55.56,2.44-.6,0-1.01.13-1.16-.02-8.03-7.45-15.85-7.51-24,.48,1.36-4.65,2.72-9.3,4.12-14.1-4-3.13-7.89-6.16-12.86-10.04,4.88,0,8.6-.17,12.31.06,2.75.17,4.3-.7,5.17-3.39,1.13-3.46,2.62-6.8,4.35-11.17,1.57,4.23,3.04,7.66,4.12,11.21.82,2.69,2.29,3.64,5.06,3.46,3.43-.23,6.89-.05,10.34-.05.12.41.23.81.35,1.22l-.02-.02Z"/><path d="m511.55,421.22c-4.26,2.6-8.46,5.16-13.06,7.98,1.24-5.41,4.2-10.79,2.89-14.75-1.24-3.76-6.97-6.03-11.8-9.81,4.78,0,8.35-.17,11.9.06,2.77.18,4.3-.71,5.15-3.41,1.09-3.48,2.54-6.84,4.11-10.96,1.42,3.58,2.81,6.56,3.8,9.67,1.1,3.47,2.9,5.18,6.81,4.65,2.93-.4,5.96-.08,10.42-.08-3.64,3-6.22,5.35-9.03,7.38-2.38,1.72-3.05,3.41-1.85,6.28,1.33,3.18,2,6.63,3.21,10.85-4.6-2.88-8.56-5.37-12.53-7.86h-.02Z"/><path d="m532.83,333.16c1,12.47,7.57,17.02,19.18,14.98-2.96,2.29-6.17,4.34-8.78,6.97-1.18,1.19-1.85,3.64-1.61,5.36.5,3.52,1.77,6.93,2.98,11.27-4.82-2.94-8.77-5.34-12.94-7.89-3.92,2.55-7.92,5.14-12.75,8.28,1.19-4.41,1.85-8.1,3.2-11.51,1.17-2.96.19-4.62-2.07-6.22-2.7-1.92-5.31-3.97-7.95-7.04,3.31,0,6.63-.18,9.93.05,3.1.22,4.94-.78,5.87-3.88.99-3.29,2.4-6.45,3.62-9.67.44-.24.88-.48,1.32-.72v.02Z"/><path d="m38.9,258.74c.83-3.16,1.43-5.38,1.99-7.61,1.35-5.38-.29-9.77-4.92-13.18-1.19-.88-2.37-1.77-4.74-3.54,3.46-.16,5.83-.65,8.08-.31,5.74.88,8.52-1.79,9.76-7.06.51-2.19,1.55-4.25,2.74-7.4,1.28,3.38,2.6,5.75,3.05,8.27.91,5.13,3.81,6.81,8.71,6.26,2.44-.27,4.93-.05,8.55-.05-3.47,2.8-5.97,5.12-8.77,6.99-2.74,1.83-3,3.86-1.93,6.74,1.2,3.23,1.97,6.63,3.24,11.06-5.01-3.07-9.06-5.56-13.15-8.07-3.93,2.46-7.87,4.93-12.6,7.89h-.01Z"/><path d="m534.05,203.75c-8.26-7.71-15.94-6.74-23.51.54-.17.16-.59.05-1.23.07.81-2.92,1.33-5.85,2.44-8.54,1.71-4.13.5-6.78-3.21-8.95-2.48-1.45-4.68-3.4-6.66-6.28,3.25,0,6.54-.27,9.76.07,3.64.38,5.5-1.08,6.52-4.44.96-3.13,2.28-6.15,3.75-10.05,1.48,4.03,2.9,7.34,3.9,10.76.83,2.85,2.31,4,5.31,3.78,3.27-.24,6.58-.05,10.36,1-2.27,1.68-4.41,3.57-6.83,4.98-3.56,2.08-4.59,4.65-3.01,8.56,1.09,2.71,1.63,5.64,2.41,8.47v.03Z"/><path d="m549.15,257.76c-4.41-2.64-8.23-4.92-12.42-7.42-3.97,2.56-8.09,5.21-12.28,7.91-.09-.53-.29-.93-.17-1.16,4.97-9.91,3.6-17.64-8.6-21.71.35-.49.69-.98,1.04-1.47,3.51,0,7.03-.15,10.53.05,2.93.17,4.6-.87,5.51-3.72,1.04-3.24,2.48-6.36,3.84-9.77.52.66,1.04,1.01,1.09,1.42,1.23,10.75,7.88,13.65,17.57,12.23.42-.06.88.2,1.84.45-1.69,1.32-3.06,2.41-4.47,3.47-4.8,3.61-6.42,8.24-4.86,13.89.47,1.72.83,3.47,1.39,5.83h-.01Z"/><path d="m38.65,346.78c12.32,3.9,17.44-2.24,19.5-12.64.03-.14.21-.25.32-.38.24.17.59.3.69.53,1.75,4.29,2.34,10.2,5.52,12.42,3.06,2.14,8.79.46,13.52,1.58-2.71,2.11-5.32,4.35-8.15,6.27-2.34,1.59-2.71,3.32-1.76,5.9,1.19,3.23,1.96,6.6,3.23,11.02-4.93-2.86-8.88-5.16-13.05-7.58-3.88,2.54-7.87,5.15-12.94,8.46,1.38-4.62,2.16-8.16,3.51-11.47,1.18-2.9.32-4.6-2.02-6.23-2.81-1.97-5.46-4.16-8.17-6.25-.07-.54-.13-1.08-.2-1.62h0Z"/><path d="m429.5,63.31c-11.21,5.01-12.26,12.47-7.9,21.75.14.29.21.63.25.95.01.12-.16.27-.45.71-2.88-1.79-5.94-3.38-8.64-5.44-2.48-1.9-4.48-2.02-6.99-.09-2.48,1.91-5.29,3.4-9.06,5.76,1.21-4.01,2.05-7.05,3.05-10.03,1-2.96.82-5.25-2.22-7.1-2.8-1.7-5.25-3.97-9.16-7,4.97,0,8.54-.16,12.08.05,2.79.17,4.23-.86,5.05-3.53,1.07-3.46,2.52-6.81,3.83-10.28.31.27.5.36.54.48,2.5,9.62,6.62,17.06,19.6,13.78h.02Z"/><path d="m44.49,277.15c.47.3.68.35.73.48,1.85,4.41,2.54,10.4,5.84,12.77,3.04,2.18,8.87.46,13.47.46.14.42.28.85.42,1.27-2.78,2.17-5.48,4.45-8.36,6.47-2.03,1.43-2.77,2.82-1.84,5.37,1.23,3.38,1.93,6.95,3.11,11.37-4.61-2.96-8.45-5.42-12.4-7.96-4.13,2.63-8.28,5.27-13.25,8.43,1.18-4.15,1.89-7.55,3.12-10.73,1.24-3.2.58-5.29-2.31-7.08-2.78-1.72-5.36-3.76-7.86-6.9,3.54,0,7.1-.21,10.62.07,2.85.23,4.25-.86,5.06-3.47,1.07-3.48,2.37-6.9,3.65-10.56h0Z"/><path d="m66.69,429.56c-.3-.68-.46-.87-.41-.97,4.3-9.42,5.28-17.86-7.98-22.07.42-.37.83-.74,1.25-1.11,3.19-.14,6.39-.52,9.56-.37,3.15.15,4.87-.94,5.77-4.03.92-3.17,2.33-6.19,3.76-9.87,1.47,3.73,2.89,6.89,3.94,10.16.83,2.61,2.16,3.78,5.01,3.59,3.57-.24,7.16-.06,11.74-.06-3.36,2.92-5.58,5.08-8.05,6.93-2.56,1.92-4.48,3.6-2.65,7.3,1.36,2.75,1.83,5.94,3.05,10.19-4.03-2.4-7.21-3.99-10.01-6.07-2.15-1.6-3.68-1.38-5.68.11-2.92,2.18-6.04,4.09-9.3,6.26h0Z"/><path d="m48.27,180.59c3.25,0,6.54-.28,9.76.08,3.52.39,5.13-1.06,6.02-4.26.84-3.03,2.08-5.94,3.41-9.64,1.34,3.32,2.8,5.98,3.46,8.82.99,4.28,3.56,5.39,7.52,5.07,2.73-.23,5.5-.04,9.63-.04-4.65,3.88-8.14,6.8-11.79,9.85,1.31,4.59,2.62,9.14,4.04,14.12-4.58-2.56-8.59-6.55-12.59-6.54-3.96,0-7.92,4.05-12.52,6.69.9-3.16,1.23-5.85,2.39-8.13,2.54-4.99.63-7.98-3.72-10.41-2.1-1.17-3.96-2.77-5.92-4.17.11-.47.21-.95.32-1.42v-.02Z"/><path d="m544.18,275.58c2.61,11.7,6.93,19.16,20.11,15.01-.14.49-.27.98-.41,1.46-2.68,2.03-5.27,4.2-8.06,6.06-2.43,1.62-3.19,3.34-2.11,6.24,1.14,3.07,1.67,6.36,2.74,10.69-4.59-2.96-8.33-5.37-12.1-7.81-4.02,2.65-7.88,5.21-12.53,8.28,1-4.11,1.51-7.53,2.69-10.7,1.23-3.32.24-5.25-2.56-6.99-2.75-1.71-5.28-3.78-7.7-6.66,3.41,0,6.83-.16,10.22.05,2.92.18,4.6-.72,5.45-3.68,1.03-3.6,2.49-7.07,4.25-11.96h.01Z"/><path d="m193.52,86.07c-3.94-2.43-7.87-4.86-11.98-7.4-3.73,2.56-7.53,5.17-12.25,8.41,1.42-5.32,2.59-9.67,3.87-14.46-3.53-2.76-7.16-5.6-10.79-8.44-.01-.43-.03-.85-.04-1.28,3.44,0,6.91-.25,10.32.08,2.86.27,4.17-.76,5.05-3.37,1.09-3.24,2.6-6.35,4.32-10.47.95,2.34,1.57,3.77,2.13,5.23,2.19,5.72,6.42,8.61,12.67,8.68,1.48.02,2.96,0,4.45,0-.04.6.03,1.09-.1,1.15-9.88,4.68-12.22,11.86-5.87,21.95l-1.77-.09h-.01Z"/><path d="m115.75,135.15c-1.77,1.46-3.52,2.92-5.3,4.36-1.67,1.35-3.37,2.67-5.23,4.15,1.49,4.62,2.95,9.11,4.81,14.86-2.98-1.8-5.07-2.75-6.79-4.17-4.19-3.45-8.04-3.76-12.18.16-1.74,1.65-4.05,2.7-7.05,4.64.9-3.12,1.49-5.14,2.07-7.17,2.67-9.22,3.63-7.11-4.54-13.11-1.59-1.17-3.23-2.27-4.76-4.72,3.36,0,6.73-.18,10.07.05,3.21.22,4.85-1.08,5.75-4.1.89-2.98,2.23-5.82,3.4-8.81.5.32.91.43.94.61,1.79,10.73,8.26,14.51,19.15,11.78-.12.49-.24.98-.36,1.47h.02Z"/><path d="m333.15,42.33c1.24-.35,1.69-.64,2.1-.57,9.74,1.56,15.95-1.83,17.88-12.49,1.13,2.61,2.43,5.16,3.36,7.84,1.1,3.13,2.67,4.98,6.41,4.54,3.08-.36,6.24-.07,9.83.95-2.21,1.74-4.24,3.8-6.67,5.15-3.97,2.21-4.45,5.06-2.87,8.98,1.04,2.58,1.59,5.36,2.76,9.44-3.61-2.36-6.38-3.9-8.82-5.85-2.54-2.02-4.65-2.44-7.41-.26-2.44,1.94-5.34,3.31-8.97,5.48,1.04-4.07,1.56-7.45,2.79-10.53,1.33-3.32.31-5.27-2.44-7.02-2.57-1.64-4.98-3.53-7.96-5.66h0Z"/><path d="m155.88,95.37c-3.71,3.06-6.57,5.04-8.91,7.51-1.08,1.14-1.82,3.35-1.55,4.87.64,3.52,1.98,6.91,3.46,11.72-4.34-2.62-7.57-4.26-10.42-6.4-2.14-1.61-3.67-1.41-5.69.04-2.92,2.1-6.04,3.92-9.06,5.85-.32-.49-.53-.69-.49-.76,5.31-9.88,2.93-17.16-8.4-21.41.33-.46.67-.92,1-1.38,3.32,0,6.66-.23,9.96.07,3.13.28,4.93-.64,5.88-3.76.97-3.17,2.41-6.19,4-10.18,1.43,3.61,2.87,6.47,3.69,9.5.97,3.58,3.09,4.67,6.55,4.41,2.81-.21,5.66-.04,9.97-.04v-.04Z"/><path d="m467.26,119.82c-3.94-2.58-7.23-4.45-10.18-6.76-2.24-1.74-3.87-1.75-6.09.02-2.57,2.06-5.49,3.68-9.33,6.2,1.2-4.34,2.43-7.54,2.84-10.83.21-1.7-.54-4.08-1.74-5.28-2.56-2.56-5.69-4.54-9.42-7.39h15.06c1.9-4.61,3.65-8.84,5.79-14.03,1.49,3.4,3,5.91,3.67,8.62.99,3.99,3.25,5.33,7.15,5.01,2.78-.23,5.59-.04,9.68-.04-3.04,2.46-4.96,4.47-7.27,5.78-4.34,2.45-4.77,5.66-2.98,9.89,1.08,2.55,1.72,5.29,2.83,8.82h-.01Z"/><path d="m294.04,48.74c-3.93,2.47-7.83,4.91-12.57,7.89.91-3.09,1.31-5.4,2.26-7.44,2.34-5.04,1.48-8.79-3.61-11.51-2.14-1.14-3.98-2.82-6.95-4.99h15.38c1.82-4.47,3.5-8.58,5.56-13.67,1.58,3.89,3.05,6.89,4,10.05.82,2.74,2.32,3.62,5.04,3.46,3.27-.19,6.55-.04,10.29,1.06-2.38,1.9-4.59,4.1-7.19,5.63-3.25,1.91-3.6,4.16-2.34,7.42,1.13,2.91,1.77,6.01,2.94,10.1-4.83-3.02-8.78-5.49-12.81-8.01h0Z"/><path d="m255.79,42.62c-.06.16-.07.4-.17.46-9.63,4.73-13.01,11.46-5.68,21.63-.47.05-.94.1-1.4.15-2.74-1.61-5.64-3-8.17-4.88-2.52-1.88-4.52-1.88-7.06-.02-2.61,1.91-5.59,3.31-9.03,5.29,1.34-4.98,2.5-9.26,3.81-14.14-3.61-2.62-7.44-5.4-11.26-8.18.04-.42.07-.83.11-1.25,3.14,0,6.3-.24,9.41.06,3.74.36,5.86-.96,6.87-4.63.75-2.7,2.02-5.25,3.08-7.91.32.2.7.31.73.47,1.91,10.53,8.19,14.57,19.3,11.45-.18.5-.36,1.01-.54,1.51h0Z"/><path d="m512.26,135.05c-1.78,1.31-3.47,2.54-5.14,3.79-4.29,3.18-5.73,7.3-4.32,12.36.53,1.9.95,3.82,1.71,6.97-3.74-2.35-6.64-4.01-9.36-5.94-2.18-1.55-3.88-1.73-6.15.08-2.55,2.05-5.57,3.51-9.22,5.73,1.51-5.3,2.77-9.71,4.11-14.43-3.68-2.76-7.38-5.54-11.07-8.31.02-.38.04-.75.05-1.13,3.16,0,6.33-.19,9.47.05,3.5.27,5.62-.88,6.61-4.41.83-2.97,2.16-5.8,3.92-9.16.84,12.3,7.84,15.46,18.36,13.63.2-.03.47.34,1.03.77h0Z"/><path d="m352.96,156.64c1.92-8.51-.7-7.49-.26-10.6.71-5.05,1.51-9.77,5.78-13.43,6.78-5.82,8.12-13.95,5.91-22.44-2.32-8.91-9.13-14.89-18.17-15.47-10.43-.68-20.29,1.16-25.72,11.49-2.25,4.27-4.94,6.41-9.58,8.05-14.79,5.23-20.81,13.6-19.94,27.37.18,2.83.21,5.67.11,8.5-.55,15.09-19.61,29.75-35.77,26.29,0-8.5-.12-17.29.03-26.08.15-9.1,5.33-13.08,14.39-11.04,3.57.81,6.26-.29,7.13-3.54.48-1.81-.26-4.87-1.61-6.05-2.58-2.26-4.79-.06-6.71,2.02-2.72,2.95-6.03,4.27-10.67,3.49,1.76-8.01,6.01-13.63,11.57-18.65,1.46-1.32,2.28-4.13,2.12-6.15-.08-1.04-3.68-3.01-4.47-2.53-1.8,1.08-3.14,3.27-4.14,5.27-2.59,5.18-4.9,10.5-7.32,15.77l-.02.03-3.09-.57c-.56-5.75-.99-11.52-1.75-17.24-.26-1.99-1.1-5.3-2.14-5.49-2.02-.36-4.83.53-6.37,1.94-.8.73-.27,4.53.87,5.46,4.35,3.56,4.24,8.45,4.76,13.16.12,1.05-.77,2.45-1.62,3.24-.29.28-2.22-.54-2.76-1.31-1.97-2.81-3.53-5.9-5.5-8.71-1.04-1.48-2.58-3.62-3.93-3.65-1.79-.04-4.14,1.28-5.32,2.76-2.17,2.73-.55,5.69,3.93,7.33,4.75,1.73,8.35,4.35,9.9,11.09-3.9-.78-7.01-.89-9.65-2.07-2.66-1.19-5.17-2.45-7.04.33-.98,1.47-1.35,4.24-.63,5.79,1.33,2.87,4.1,2.74,6.91,1.58,3.93-1.63,7.94-2.28,12.05.26-.52,1.54-.99,2.94-1.46,4.34-4.42,13.08-9.35,26.02-8.77,40.24.37,9.02,3.03,12.31,12.14,13.12,4.19.37,8.43.06,13.16.06-1.01,2.67-1.65,4.36-2.3,6.05-.67,1.71-1.38,3.4-2.02,5.11-6.98,18.63-5.47,36.62,4.35,53.87,8.15,14.31,19.44,25.8,32.99,34.96,7.49,5.06,15.51,9.33,23.4,14.03-1.28,1.47-2.92,2.94-4.06,4.74-4.45,7.01-9.47,13.78-12.9,21.27-4.56,9.94-1.94,16.15,7.91,22.79,4.48,3.02,9.07,5.88,13.61,8.81l-.41,1.9c-5.19.78-10.37,1.92-15.59,2.17-3.24.16-5.84.69-6.46,3.96-.3,1.61.94,3.51,1.49,5.27,2.14-.68,4.42-1.07,6.37-2.1,4.91-2.6,9.77-4.96,16.74-3.61-5.22,6.35-7.98,13.12-14.52,17.2-1.92,1.2-3.22,4.42-3.43,6.83-.09,1.05,3.71,3.74,4.98,3.33,2.22-.71,4.36-2.95,5.65-5.08,3.34-5.5,6.21-11.29,9.26-16.96l2.53.8c-.56,4.59-1.39,9.18-1.56,13.79-.08,1.92.71,4.61,2.08,5.62,1.16.85,4.33.43,5.5-.64,1.08-1,1.17-3.69.84-5.48-.95-5.19-2.32-10.31-3.53-15.46.73-.26,1.45-.53,2.17-.79,1.75,2.83,3.07,6.09,5.38,8.36,1.63,1.6,4.62,2.56,6.93,2.44,1.29-.07,3.51-3.05,3.35-4.51-.18-1.68-2.43-3.22-3.94-4.65-2.87-2.71-6.05-5.11-8.7-8-1.72-1.88-1.13-3.91,1.73-4.17,2.6-.24,5.27.26,7.84-.1,1.73-.23,3.91-1.01,4.76-2.29.52-.77-.8-3.95-1.89-4.32-1.85-.64-4.44-.49-6.23.36-3.53,1.67-7.41,3.3-9.89-.24-3.37-4.8-5.56-10.42-8.01-15.22,8.94-6.35,17.16-12.18,25.67-18.22,6.25,9.68,9.85,20.36,10.63,32.04,1.82,27.38-15.04,51.48-40.96,62.8-26.5,11.57-54.06,13.78-82.15,7.03-31.66-7.61-55-25.72-67.24-56.34-2.82-7.06-4.28-15.3-3.93-22.88,1.68-36.49,37.67-55.04,66.74-48.36,19.12,4.39,32.81,19.13,33.84,36.58.85,14.34-6.26,26.48-19.2,32.84-13.12,6.45-28.42,4.79-38.4-4.14-8.57-7.68-9.86-20.15-2.91-28.23,7.36-8.56,20.7-9.92,29.32-2.99,4.91,3.94,5.9,10.74,2.29,15.64-3.41,4.63-10.72,6.3-15.15,2.95-1.55-1.17-2.89-3.86-2.72-5.71.14-1.54,2.49-3.06,4.12-4.22.87-.62,2.29-.47,3.76-.71-6.6-4.02-12.8,2.07-11.18,8.36.67,2.62,3.46,5.4,6,6.68,5.87,2.96,12.09,2.51,17.52-1.37,5.63-4.02,6.87-10.07,5.89-16.5-1.35-8.85-8.61-14.97-19.95-16.76-11.87-1.87-22.47,1.3-30.08,10.67-8.09,9.97-7.95,21.47-2.14,32.42,6.12,11.54,15.79,19.63,28.74,22.23,20.82,4.18,39.41-.78,53.1-17.58,14.21-17.44,14.22-37.43,5.65-57.08-10.56-24.2-30.72-35-56.4-37.56-44.48-4.43-95.73,27.46-86.97,91.12,4.72,34.3,22.73,60.79,51.12,79.43,48.61,31.92,99.91,33.62,151.36,7.77,45.83-23.02,62.42-69.65,52.83-115.9-4.01-19.34-12.64-36.75-24.87-52.38-1.76-2.26-3.5-5.82-3-8.34,1.91-9.68,4.73-19.18,7.35-29.25,2.63,2.45,5.5,4.91,8.11,7.61,7.34,7.6,6.41,14.29-2.68,20.04-2.82,1.78-3.15,4.2-1.53,6.85,1.68,2.74,4.39,2.68,6.45.92,1.47-1.25,2.12-3.53,2.97-5.43,1.34-3,2.29-6.21,3.95-9.01.44-.74,3.95-.84,4.19-.35,3.39,7.1,8.01,13.8,7.1,22.41-.19,1.81,1.5,4.76,3.13,5.57,1.53.76,5.33.04,5.98-1.17,1-1.87,1.06-5.32-.08-7.05-4.51-6.87-7.29-14.3-9.91-23.4,9.36,3.13,17.85,4.67,23.88,11.71.94,1.1,2.71,2.09,4.09,2.08,3.27-.02,6.09-1.54,5.92-5.29-.17-3.73-2.11-6.09-6.38-6.04-8.71.09-16.24-3.33-23.48-8.67,8.12-3.12,16.25-5.59,24.51-7.53,2.94-.69,5.67-1.56,5.27-4.63-.24-1.81-2.77-4.51-4.46-4.65-2.4-.21-5.55.94-7.37,2.61-4.95,4.55-10.77,6.46-17.16,7.27-2.97.37-4.34-1.12-2.97-3.8,1.4-2.75,3.74-5.01,5.14-7.76,1.09-2.12,1.82-4.69,1.7-7.01-.04-.78-3.32-2.16-4.92-1.92-3.3.49-3.8,3.3-3.35,6.21.68,4.41-1.23,7.58-5.23,10.98-4.16-6.26-8.04-12.19-12.02-18.06-2.15-3.16-4.15-6.5-6.76-9.25-7.02-7.4-16.56-7.06-23.02.78-2.63,3.18-4.97,6.69-6.9,10.33-2.82,5.3-5.15,10.87-7.94,16.87-.84-2.49-1.35-4.25-2.03-5.94-1.87-4.67-4.66-8.4-9.86-9.78-11.65-3.11-16.66-13.45-11.82-25.44,10.72,9.83,21.34,4.97,31.88-.27,4.77-2.37,9.41-4.99,14.08-7.56,10.31-5.69,21.8-4.41,31.15,3.16,1.2.97,4.24,1.28,5.25.46,1.46-1.19,3.06-4.55,2.42-5.46-1.24-1.77-3.87-3.08-6.14-3.53-5.8-1.15-11.72-1.73-17.59-2.53l-.19-2.2c5.83-1.95,11.23-5.77,17.88-4.36,3.13.67,5.96.96,7.15-2.25.58-1.56-.08-4.43-1.27-5.63-2.58-2.61-4.98-.78-7.86.8-4.86,2.67-10.39,4.13-15.64,6.1l-1.11-2.09c4.29-3.72,8.29-7.86,12.97-10.99,2.4-1.61,5.07-2.7,4.05-5.72-.58-1.73-2.95-3.68-4.77-3.98-2.77-.46-4.34,1.3-5.37,4.48-2.13,6.56-7.22,10.96-13.22,15.33-1.66-4.86-2.86-8.57-.72-12.84.75-1.48.53-4.69-.5-5.49-1.23-.94-4.6-.91-5.59.11-1.27,1.31-1.7,4.11-1.41,6.11.54,3.69,1.93,7.25,2.83,10.9.69,2.79-.63,4.5-3.36,5.07-5.53,1.16-11.06,2.35-16.62,3.36-9.77,1.74-17.37-1.38-22.78-9.37-2.77-4.07-2.13-8.91,2.23-14.05,2.26-2.67,1.81-2.85,5.42-3.23,1.53-.16,2.88-.14,3.23-.13,6.04.19,10.33-.94,15.51-3.99l.59-.46c.86-.58,2.86-2.95,3.29-3.89l2.22-3.95Zm-2.5-30.99c.54-.41,2.75.25,3.08.94,1.6,3.37.14,5.86-3.21,8.2-2.12-3.61-3.32-6.57.13-9.14Zm-18.7-16.14c.62.28,1.08,2.54.62,3.16-2.22,3-5.1,2.89-8.74,1.03,2.18-3.57,4.23-6.02,8.12-4.19Z"/></svg>