<?xml version="1.0" encoding="UTF-8"?><svg id="Layer_1" xmlns="http://www.w3.org/2000/svg" viewBox="0 0 589.92 199.52"><path d="m112.08,48.75c-5.9-1.21-13.34-9.14-14.51-15.44-1.11-5.99,1.64-10.94,8.49-14.95,8.54-5,18.06-6.69,27.71-7.59,19.31-1.8,38.26-.31,56.36,7.33,25.86,10.92,35.08,33.85,24.19,59.78-2.12,5.04-4.82,9.78-7.92,15.06,5.31.14,10.01,1,14.36-1.82.66-.43,1.82-.97,2.28-.69,2.84,1.73,5.25,2.05,7.27-1.17.16-.25,1.43-.22,1.75.11,1.03,1.07.26,2.18-.35,3.15-1.91,3.03-4.67,5.6-5.18,10.11,4.14-2.2,6.52-5.46,9.07-8.54.72-.87,1.52-2.24,2.76-1.44,1.19.77.43,2.1-.07,3.16-1.08,2.3-3.1,4.3-2.55,7.99,3.84-3.58,7.4-6.4,8.25-11.44.38-2.28,1.22-4.52,2.76-6.35.95-1.12,2.01-2.67,3.69-1.56,1.56,1.03.32,2.44-.22,3.54-.88,1.78-1.94,3.49-3,5.18-.67,1.07-1.05,2.22-.31,3.26.79,1.1,2.16.89,3.24.53,2.8-.94,5.75-1.61,6.81-5.13.41-1.36.85-3.35,3.58-3.5-.18,5.35-5.02,9.02-5.09,14.74,3.82-1.06,5.79-3.94,8.19-6.21,4.01-3.78,7.22-9.03,14.32-6.24,1.89.74,2.18-2.06,2.83-3.45,5.69-12.22,11.29-24.49,18.87-35.7,1.11-1.64,2.48-3.12,3.78-4.63.59-.68,1.45-.89,2.26-.46.86.46.95,1.42.67,2.19-.85,2.34-1.66,4.72-2.8,6.92-5.82,11.26-12.5,21.97-20.02,32.18-1.67,2.27-4.29,4.2-3.12,7.86.74,2.33-2.56,1.08-3.22,2.94-2.11,5.9-4.75,11.63-6.08,19.26,5.6-4.82,8.63-9.96,12.1-14.71,1.87-2.55,3.54-5.25,5.32-7.86.58-.85,1.35-1.68,2.43-.88.95.7.22,1.49-.28,2.11-5.49,6.7-9.55,14.48-15.7,20.65-1.14,1.14-2.34,2.86-4.19,1.9-1.95-1.01-1.04-2.92-.55-4.45,1.48-4.7,3.04-9.36,5.04-15.46-2.93,2.52-4.69,4.16-6.57,5.62-4.14,3.21-5.52,2.7-6.98-2.57-2.77.75-4.23,5.14-7.59,3.53-3.09-1.48.2-4.54-.75-7.02-2.97.28-5.92,2.55-8.98.12-.89-.7-1.6.73-2.21,1.46-1.49,1.79-2.97,3.59-4.48,5.36-1.13,1.34-2.5,2.42-4.3,1.58-1.71-.79-1.46-2.38-1.12-3.92.13-.59.02-1.23.02-1.95-3.24,1.34-4.03,6.39-8.09,5.23-2.65-.76-.71-3.82-1.33-5.93-2.03,1.68-3.89,3.33-5.87,4.82-1.37,1.02-2.99,1.78-4.54.41-1.34-1.19-.88-2.81-.35-4.19.71-1.83,1.69-3.56,2.57-5.35-7.5-2.34-9.13-1.68-13.94,3.91-20.07,23.33-44.31,40.58-73.79,50.08-4.63,1.49-9.4,2.09-14.28,1.82-8.32-.47-13.55-5.59-14.06-13.9-.53-8.59,2.31-16.42,5.72-24.05,2.23-5.01,4.85-9.85,7.42-14.7,2.66-5.02,2.72-5.07-2.82-5.03-16.82.13-33.65.46-50.47.46-16.15,0-32.32.75-48.45-.69-3.77-.34-8.81,0-9.88-4.14-1.13-4.37,3.8-6.23,6.97-8.03,18.88-10.76,39.2-17.23,60.75-19.93,13.22-1.65,26.24-1.17,38.96,3.19,6.08,2.08,11.66,5.04,15.98,9.84,2.25,2.49,3.38,2.09,5.21-.41,6.2-8.48,12.88-16.57,20.89-23.43,1.6-1.37,3.26-3.55,5.57-2.28,2.66,1.47,1.47,4.32.84,6.33-3.59,11.44-8.6,22.34-13.52,33.25-1.69,3.74-1.36,4.7,2.95,4.67,18.16-.14,36.32.04,54.48.07,1.76,0,3.71.49,4.98-1.44,7.69-11.62,13.12-24.04,11.9-38.32-1.42-16.61-11.53-27.02-26.11-33.03-24.62-10.16-49.95-11.08-75.12-2.39-16.81,5.8-18.19,14.42-5.33,26.86,1.05,1.01,2.39,1.71,3.6,2.56-.36.41-.73.82-1.09,1.22Zm89,47.44c-.15-.61-.29-1.21-.44-1.82-19.62,0-39.24.02-58.85-.03-2.33,0-3.08,1.37-3.89,3.14-4.34,9.54-8.67,19.08-13.2,28.53-1.05,2.19-1.57,6.82-4.23,5.61-3.27-1.48.12-4.88.95-7.26,2.47-7.07,5.18-14.06,6.11-21.54,1.06-8.48.52-8.88-8.14-8.51-2.37.1-3.63,1.07-4.63,3.01-2,3.84-4.32,7.52-6.12,11.44-4.1,8.92-8.25,17.88-8.08,28.02.14,8.24,4.79,12.98,12.95,13.46,5.58.33,10.93-.79,16.18-2.55,19.24-6.44,35.87-17.31,51.29-30.22,7.53-6.31,14.37-13.28,20.1-21.27Zm-140.42-3.06c16.09,0,29.78-.6,43.38.22,8.55.51,14.08-1.82,17.69-9.68,1.22-2.65,1.09-4.06-.71-6.02-5.62-6.08-12.72-9.52-20.55-11.62-13.11-3.53-26.36-3.21-39.6-.99-19.34,3.25-37.68,9.37-54.35,19.94-1.62,1.03-4.02,2.27-3.5,4.35.42,1.68,2.97,1.63,4.76,1.86,18.38,2.31,36.87,1.7,52.88,1.94Zm91.61-40.93c-7.79,4.84-13.4,11.76-19.27,18.48-4.36,4.99-7.85,9.64-3.26,16.25.53.77.6,1.89.79,2.86.33,1.66.49,3.28,2.85,3.33,2.18.05,3.73-.26,4.64-2.67,1.83-4.8,4.17-9.41,5.99-14.22,2.98-7.86,6.61-15.49,8.25-24.05Zm150.32.21c-5.26,4.45-15.99,23.46-16.48,29.12,6.39-9.73,12.74-18.68,16.48-29.12Zm-184.86,41.06c3.7-1.1,7.88,1.36,9.36-1.48,1.3-2.5-.61-6.22-3.1-9.14-2.16,3.26-4.51,5.99-6.26,10.62Zm96.61,10.03c4.39-1.6,6.58-4.32,9.06-6.67.84-.8,1.77-1.78.88-2.97-1.02-1.36-2.33-.81-3.5-.05-3.27,2.13-5.3,5.08-6.44,9.69Zm50.92.43c4.1-2.39,6.7-4.89,9.05-7.66.68-.8,2.11-1.63.95-2.83-.89-.92-2.2-.46-3.2.22-3.35,2.27-5.76,5.2-6.8,10.28Zm-134.3.73c2.33-2.19,2.89-4.82,3.94-7.15.51-1.12,1.62-2.54-.64-3.03-1.73-.37-2.88.18-2.92,2.24-.05,2.47-.23,4.93-.38,7.93Z"/><path d="m453.54,113.62c9.45-5.74,11.07-16.31,15.11-25.23,8.5-18.77,16.95-37.63,21.37-57.91,4.18-19.14-2.08-27.12-21.66-27.26-14.66-.1-28.64,3.76-42.31,8.67-38,13.66-73.25,32.37-104.78,57.78-3.63,2.93-7.01,6.2-9.46,10.22-2.71,4.46-1.83,7.13,2.99,8.93,2.63.98,5.43,1.73,8.21,2.02,9.4.99,18.75,2.38,28.28,2.29,27.65-.27,55.3-.2,82.94-.12,3.94.01,7.53-1.11,11.21-2.07,1.81-.47,4.04-1.14,4.48,1.39.39,2.24-1.89,2.15-3.5,2.5-17.96,3.88-33.52,12.49-47.31,24.41-1.88,1.62-4.72,3.72-3.2,6.64,1.38,2.65,4.72,2.21,7.29,2.01,12.4-.97,24-5.08,35.56-9.31,2.62-.96,5.01-2.7,7.99-2.56-14.96,7.38-30.35,13.33-47.31,13.95-2.65.1-5.03-.7-6.31-3.21-1.26-2.47.17-4.6,1.56-6.43,6.24-8.17,15.12-12.89,23.8-17.82,4.26-2.42,8.72-4.48,12.92-7.53-1.58,0-3.16,0-4.74,0-27.33,0-54.65.02-81.98-.01-9.34,0-18.62-.93-27.71-3.05-10.04-2.34-11.81-7.77-5.06-15.67,8.53-9.98,19.32-17.29,30.26-24.3,33.19-21.28,67.83-39.5,106.41-49.08,9.89-2.46,19.95-4.03,30.14-1.78,11.49,2.54,16.72,10.18,15.33,21.92-1.6,13.53-6.34,26.15-11.4,38.63-6.18,15.22-12.7,30.3-19.57,46.61,8.42-4.63,16.79-7.21,22.69-14.03.69-.8,1.2-2.48,2.61-1.55,1.14.75.5,2.21.03,3.23-1.07,2.29-3.36,4.11-2.62,7.82,3.76-3.52,7.33-6.34,8.17-11.37.38-2.28,1.22-4.52,2.76-6.35.95-1.12,2.01-2.67,3.69-1.56,1.56,1.03.32,2.44-.22,3.54-.88,1.78-1.94,3.49-3,5.18-.67,1.07-1.05,2.22-.31,3.26.79,1.1,2.12.82,3.24.54,2.64-.65,4.81-2.11,6.88-3.88,2.37-2.01,4.7-4.41,8.14-1.11,1.96,1.87,1.87-1.38,2.98-1.97.87-.46,1.64-1.43,2.63-.86,1.4.81.71,2.06.12,3.03-1.94,3.17-4.76,5.89-5.52,10.64,5.11-3.09,8.1-7.14,11.07-11.22.79-1.08,1.2-3.55,2.99-2.43,1.57.98-.27,2.55-.8,3.81-.5,1.17-1.8,1.96-1.6,3.94,2.18-1.79,4.13-3.42,6.13-5,1.4-1.1,3.02-1.73,4.55-.47,1.36,1.12.91,2.8.43,4.2-.69,2-1.62,3.91-2.87,6.85,3.87-2.14,6.58-3.94,8.14-7.19,1.6-3.33,4.48-5.29,7.73-6.76.94-.42,2.09-.64,2.61.5.6,1.31-.66,1.58-1.5,2-3.26,1.63-6.68,3.14-6.62,7.75,2.58,1,3.72-2.26,5.96-1.69,0,0-.09-.1-.09-.1-2.68,2.49-5.04,4.6-3.94,9.26.9,3.8-5.97,8.47-9.95,7.6-2.38-.52-2.93-1.98-2.05-4.08,1-2.4,3.14-3.82,4.9-5.58,1.04-1.04,3.24-1.51,1.84-4.54-2.02,1.97-3.79,3.81-5.67,5.51-1.07.96-2.22,2.32-3.89,1.38-1.82-1.02-1.55-2.82-1.07-4.45.67-2.3,1.52-4.55,2.64-7.82-4.98,2.88-7.51,6.57-10.35,9.95-.92,1.1-1.75,3.06-3.36,2.5-2.31-.8.12-2.87-.45-4.29-2.62,1.05-3.46,5.33-6.91,4.07-2.62-.95-.69-3.85-1.33-5.98-1.9,1.6-3.62,3.15-5.44,4.57-1.33,1.04-2.85,1.99-4.56.97-1.87-1.12-1.1-2.89-.8-4.49.11-.6.22-1.2.36-1.97-2.32-.24-4.51,1-6.43-.63-1.4-1.18-2.01.24-2.72,1.08-1.5,1.78-2.97,3.59-4.46,5.37-1.12,1.34-2.48,2.49-4.27,1.76-2.01-.83-1.53-2.65-1.19-4.33.16-.78.14-1.6.24-3-6.82,3.45-13.12,6.69-19.47,9.83-1.71.85-2.1,2.44-2.79,3.94-12.32,26.9-24.61,53.82-37.06,80.66-.93,2-1.54,6.22-4.15,5.02-2.21-1.02.24-4.47,1.24-6.62,11.6-24.86,23.28-49.68,34.94-74.51.83-1.76,1.84-3.45,2-6-1.47.56-2.64,1-3.81,1.44Zm49.85-10.12c4.34-1.58,6.54-4.31,9.02-6.66.84-.8,1.77-1.78.88-2.97-1.02-1.36-2.33-.81-3.5-.05-3.26,2.14-5.32,5.07-6.4,9.68Zm34.14,7.69c2.85,0,4.8-1.23,6.28-3.36.81-1.17,1.3-2.68.07-3.59-1.15-.85-2.15.53-2.89,1.31-1.43,1.5-3.3,2.79-3.46,5.63Z"/><path d="m559.59,93.06c.07-1.32-.11-2.72.25-3.95.66-2.25,2.25-3.91,4.71-3.65,2.7.29,3.17,2.38,3.12,4.82-.03,1.35-1.55,3.27.3,3.99,1.87.72,3.25-.74,4.36-2.42.77-1.16,1.1-4.01,3.27-2.55,1.39.93-.47,2.59-1.08,3.84-.5,1.03-1.19,1.97-1.3,3.55,1.9-1.53,3.79-3.08,5.7-4.6,1.37-1.09,2.93-1.9,4.55-.83,1.75,1.15,1.14,3,.63,4.54-.66,1.98-1.61,3.87-1.72,6.41l7.55-5.92c-1.88,4.1-5.21,6.89-8.43,9.77-.74.66-1.7,1.14-2.73.52-1.33-.8-1.65-2.1-1.28-3.47.72-2.64,1.59-5.25,2.62-8.62-5.1,2.75-7.66,6.87-10.73,10.46-.82.96-1.77,2.61-3.16,1.67-1.33-.9-.28-2.41.29-3.59.85-1.79,1.7-3.57,2.57-5.39-2.56-1.45-3.78-.28-4.91,1.72-1.47,2.61-3.21,5.07-5.76,6.78-1.14.76-2.38,1.38-3.71.64-1.44-.8-1.25-2.33-1.02-3.58.42-2.24,1.13-4.42,1.78-6.87-1.51.25-2.72.44-3.94.64,0,0,.09.1.09.1,2.12-2.51,4.7-4.11,8.09-4.11-1.08,4.03-5.04,7.11-4.08,11.95,6.98-3.06,8.46-7.66,3.97-11.87Z"/></svg>