<?xml version="1.0" encoding="UTF-8"?><svg id="Livello_1" xmlns="http://www.w3.org/2000/svg" xmlns:xlink="http://www.w3.org/1999/xlink" viewBox="0 0 456.5 155.81"><defs><style>.cls-1{fill:#fff;}.cls-2{fill:url(#linear-gradient);fill-rule:evenodd;}</style><linearGradient id="linear-gradient" x1="77.9" y1="157.81" x2="77.9" y2="2" gradientTransform="translate(0 157.81) scale(1 -1)" gradientUnits="userSpaceOnUse"><stop offset="0" stop-color="#f452ff"/><stop offset="1" stop-color="#832bc1"/></linearGradient></defs><g><path d="m221.34,52.26h-15.65l-3.76,11.55h-6.63l14.83-42.74h6.89l14.83,42.74h-6.74l-3.76-11.55Zm-14.03-5.33h12.41l-6.12-18.75h-.17l-6.12,18.75Z"/><path d="m268.13,48.24c0,9.86-4.98,16.11-12.49,16.11-4.3,0-7.71-2.19-9.42-5.66h-.14v15.43h-6.15v-41.46h5.95v5.36h.11c1.76-3.58,5.21-5.86,9.53-5.86,7.6,0,12.61,6.22,12.61,16.08Zm-6.32,0c0-6.52-3.04-10.69-7.91-10.69s-7.85,4.26-7.85,10.69,3.13,10.69,7.85,10.69,7.91-4.15,7.91-10.69Z"/><path d="m305.36,48.24c0,9.86-4.98,16.11-12.49,16.11-4.3,0-7.71-2.19-9.42-5.66h-.14v15.43h-6.15v-41.46h5.95v5.36h.11c1.76-3.58,5.21-5.86,9.53-5.86,7.6,0,12.61,6.22,12.61,16.08Zm-6.32,0c0-6.52-3.04-10.69-7.91-10.69s-7.85,4.26-7.85,10.69,3.13,10.69,7.85,10.69,7.91-4.15,7.91-10.69Z"/><path d="m314.62,21.08h6.15v42.74h-6.15V21.08Z"/><path d="m357.07,54.66c-.85,5.69-6.03,9.74-12.89,9.74-8.79,0-14.12-6.19-14.12-16.02s5.41-16.29,13.86-16.29,13.49,6.1,13.49,15.55v2.19h-21.14v.39c0,5.42,3.13,9,8.05,9,3.5,0,6.09-1.84,6.92-4.56h5.83Zm-20.77-9.3h14.97c-.14-4.77-3.04-8.12-7.34-8.12s-7.31,3.41-7.63,8.12Z"/><path d="m213.74,90.3c7.97,0,13.52,5.72,13.52,14.04s-5.66,14.1-13.72,14.1h-8.82v14.6h-6.37v-42.74h15.4Zm-9.02,22.57h7.31c5.55,0,8.71-3.11,8.71-8.5s-3.16-8.47-8.68-8.47h-7.34v16.97Z"/><path d="m233.78,117.46c0-10.01,5.66-16.14,14.2-16.14s14.2,6.13,14.2,16.14-5.63,16.17-14.2,16.17-14.2-6.13-14.2-16.17Zm22.14,0c0-6.9-3.13-10.87-7.94-10.87s-7.94,3.97-7.94,10.87,3.13,10.9,7.94,10.9,7.94-3.97,7.94-10.9Z"/><path d="m269.91,117.46c0-9.83,5.01-16.08,12.52-16.08,4.3,0,7.71,2.25,9.39,5.69h.11v-16.76h6.18v42.74h-5.98v-5.3h-.11c-1.76,3.55-5.18,5.83-9.53,5.83-7.57,0-12.58-6.28-12.58-16.11Zm6.29,0c0,6.58,3.04,10.69,7.91,10.69s7.88-4.18,7.88-10.69-3.16-10.69-7.88-10.69-7.91,4.15-7.91,10.69Z"/><path d="m328.54,112.6c-.63-3.32-3.02-5.95-7.03-5.95-4.75,0-7.88,4.12-7.88,10.81s3.16,10.81,7.94,10.81c3.78,0,6.26-2.16,6.97-5.78h5.92c-.65,6.63-5.75,11.14-12.95,11.14-8.57,0-14.14-6.1-14.14-16.17s5.58-16.14,14.09-16.14c7.71,0,12.41,5.15,12.95,11.28h-5.86Z"/><path d="m341.92,124.18c0-5.45,4.01-8.8,11.13-9.21l8.2-.5v-2.4c0-3.47-2.25-5.54-6-5.54-3.56,0-5.78,1.78-6.32,4.56h-5.81c.34-5.63,4.95-9.77,12.35-9.77s11.9,4,11.9,10.25v21.47h-5.89v-5.12h-.14c-1.74,3.47-5.52,5.66-9.45,5.66-5.86,0-9.96-3.79-9.96-9.39Zm19.32-2.81v-2.46l-7.37.47c-3.67.27-5.75,1.95-5.75,4.62s2.16,4.5,5.46,4.5c4.3,0,7.66-3.08,7.66-7.14Z"/><path d="m388.8,101.32c6.66,0,11.33,3.88,11.53,9.42h-5.78c-.29-2.81-2.48-4.56-5.92-4.56s-5.55,1.69-5.55,4.15c0,1.93,1.48,3.23,4.58,4.03l5.04,1.21c6.03,1.51,8.31,3.88,8.31,8.47,0,5.69-5.09,9.6-12.44,9.6s-11.78-3.82-12.26-9.54h6.09c.48,2.99,2.7,4.65,6.46,4.65s5.98-1.6,5.98-4.12c0-1.98-1.14-3.08-4.27-3.91l-5.35-1.36c-5.41-1.36-8.14-4.29-8.14-8.65,0-5.57,4.72-9.39,11.72-9.39Z"/><path d="m418.07,94.5v7.38h5.69v5.06h-5.69v17.18c0,2.7,1.14,3.91,3.64,3.91.63,0,1.62-.06,2.02-.15v5.06c-.68.18-2.05.3-3.41.3-6.06,0-8.42-2.4-8.42-8.41v-17.89h-4.35v-5.06h4.35v-7.38h6.17Z"/><path d="m444.29,101.32c6.66,0,11.33,3.88,11.53,9.42h-5.78c-.29-2.81-2.48-4.56-5.92-4.56s-5.55,1.69-5.55,4.15c0,1.93,1.48,3.23,4.58,4.03l5.04,1.21c6.03,1.51,8.31,3.88,8.31,8.47,0,5.69-5.09,9.6-12.44,9.6s-11.78-3.82-12.26-9.54h6.09c.48,2.99,2.7,4.65,6.46,4.65s5.98-1.6,5.98-4.12c0-1.98-1.14-3.08-4.27-3.91l-5.35-1.36c-5.41-1.36-8.14-4.29-8.14-8.65,0-5.57,4.72-9.39,11.72-9.39Z"/></g><g><path class="cls-2" d="m152.74,135.03c-1.51,3.84-4.99,9.24-9.97,13.09-2.86,2.18-6.28,4.31-10.96,5.71-4.99,1.51-11.17,1.97-18.85,1.97H42.85c-7.69,0-13.82-.52-18.85-1.97-4.67-1.4-8.1-3.48-10.96-5.71-4.93-3.79-8.47-9.24-9.97-13.09C.05,127.3,0,118.52,0,112.96h0V42.85h0c0-5.56.05-14.33,3.06-22.07,1.51-3.84,4.99-9.24,9.97-13.09,2.86-2.18,6.28-4.31,10.96-5.71,5.04-1.45,11.17-1.97,18.85-1.97h70.11c7.69,0,13.82.52,18.85,1.97,4.67,1.4,8.1,3.48,10.96,5.71,4.93,3.79,8.47,9.24,9.97,13.09,3.06,7.74,3.06,16.57,3.06,22.07v70.11c0,5.56-.05,14.33-3.06,22.07Z"/><g><path class="cls-1" d="m91.25,94.06c-.21-1.87-.83-3.22-2.08-4.47-2.34-2.44-6.44-4.05-11.27-4.05s-8.93,1.56-11.27,4.05c-1.19,1.3-1.87,2.6-2.08,4.47-.42,3.64-.16,6.75.26,11.79.42,4.78,1.19,11.17,2.18,17.61.73,4.62,1.3,7.12,1.82,8.88.88,2.91,4.05,5.4,9.09,5.4s8.26-2.54,9.09-5.4c.52-1.77,1.09-4.26,1.82-8.88.99-6.49,1.77-12.83,2.18-17.61.47-5.04.68-8.15.26-11.79Z"/><path class="cls-1" d="m90.68,67.57c0,7.06-5.71,12.78-12.78,12.78s-12.78-5.71-12.78-12.78,5.71-12.78,12.78-12.78,12.78,5.76,12.78,12.78Z"/><path class="cls-1" d="m77.75,17.24c-29.81.1-54.22,24.31-54.64,54.12-.31,24.15,15.11,44.82,36.67,52.4.52.21,1.04-.26.99-.78-.26-1.87-.57-3.74-.78-5.61-.1-.68-.52-1.19-1.09-1.51-17.04-7.43-28.93-24.51-28.72-44.3.26-25.97,21.45-47.11,47.37-47.31,26.54-.21,48.2,21.29,48.2,47.78,0,19.58-11.84,36.41-28.72,43.83-.62.26-1.04.83-1.09,1.51-.26,1.87-.52,3.74-.78,5.61-.1.57.47.99.99.78,21.35-7.48,36.67-27.84,36.67-51.73-.1-30.23-24.77-54.84-55.05-54.79Z"/><path class="cls-1" d="m76.5,35.42c-19.42.73-35.01,16.78-35.26,36.2-.16,12.78,6.23,24.1,16.05,30.8.47.31,1.14-.05,1.14-.62-.16-2.23-.16-4.21-.05-6.28.05-.68-.21-1.3-.73-1.77-5.97-5.61-9.61-13.61-9.4-22.44.42-15.58,12.93-28.25,28.51-28.88,16.93-.68,30.85,12.93,30.85,29.66,0,8.52-3.64,16.2-9.4,21.66-.47.47-.73,1.09-.73,1.77.1,2.03.05,4-.05,6.23-.05.57.62.99,1.14.62,9.66-6.6,16.05-17.76,16.05-30.33.05-20.67-17.24-37.45-38.12-36.62Z"/></g></g></svg>